# xmcd
#
# Track frame offsets: 
#        150
#        450
#        27399
#        45277
#        70502
#        83337
#        107592
#        124732
#        143569
#        172872
#
# Disc length: 2569 seconds
#
# Revision: 0
# Processed by: cddbd v1.5.2PL0 Copyright (c) Steve Scherf et al.
# Submitted via: ExactAudioCopyFreeDBPlugin 1.0
#
DISCID=640a070a
DTITLE=John Mayall - USA Union
DYEAR=1900
DGENRE=
TTITLE0=Nature's Disappearing
TTITLE1=You Must Be Crazy
TTITLE2=Night Flyer
TTITLE3=Off the Road
TTITLE4=Possessive Emotions
TTITLE5=Where Did My Legs Go
TTITLE6=Took the Car
TTITLE7=Crying
TTITLE8=My Pretty Girl
TTITLE9=Deep Blue Sea
EXTD=
EXTT0=
EXTT1=
EXTT2=
EXTT3=
EXTT4=
EXTT5=
EXTT6=
EXTT7=
EXTT8=
EXTT9=
PLAYORDER=
